HIERARCHY
ROOT Hips
{
	OFFSET 0.000000 0.000000 0.000000
	CHANNELS 6 Xposition Yposition Zposition Zrotation Yrotation Xrotation 
	JOINT LHipJoint
	{
		OFFSET 0.000000 0.000000 0.000000
		CHANNELS 3 Zrotation Yrotation Xrotation
		JOINT LeftUpLeg
		{
			OFFSET 1.363060 -1.794630 0.839290
			CHANNELS 3 Zrotation Yrotation Xrotation
			JOINT LeftLeg
			{
				OFFSET 2.448110 -6.726130 0.000000
				CHANNELS 3 Zrotation Yrotation Xrotation
				JOINT LeftFoot
				{
					OFFSET 2.562200 -7.039590 0.000000
					CHANNELS 3 Zrotation Yrotation Xrotation
					JOINT LeftToeBase
					{
						OFFSET 0.157640 -0.433110 2.322550
						CHANNELS 3 Zrotation Yrotation Xrotation
						End Site
						{
							OFFSET 0.000000 0.000000 0.000000
						}
					}
				}
			}
		}
	}
	JOINT RHipJoint
	{
		OFFSET 0.000000 0.000000 0.000000
		CHANNELS 3 Zrotation Yrotation Xrotation
		JOINT RightUpLeg
		{
			OFFSET -1.305520 -1.794630 0.839290
			CHANNELS 3 Zrotation Yrotation Xrotation
			JOINT RightLeg
			{
				OFFSET -2.542530 -6.985550 0.000000
				CHANNELS 3 Zrotation Yrotation Xrotation
				JOINT RightFoot
				{
					OFFSET -2.568260 -7.056230 0.000000
					CHANNELS 3 Zrotation Yrotation Xrotation
					JOINT RightToeBase
					{
						OFFSET -0.164730 -0.452590 2.363150
						CHANNELS 3 Zrotation Yrotation Xrotation
						End Site
						{
							OFFSET 0.000000 0.000000 0.000000
						}
					}
				}
			}
		}
	}
	JOINT LowerBack
	{
		OFFSET 0.000000 0.000000 0.000000
		CHANNELS 3 Zrotation Yrotation Xrotation
		JOINT Spine
		{
			OFFSET 0.028270 2.035590 -0.193380
			CHANNELS 3 Zrotation Yrotation Xrotation
			JOINT Spine1
			{
				OFFSET 0.056720 2.048850 -0.042750
				CHANNELS 3 Zrotation Yrotation Xrotation
				JOINT Neck
				{
					OFFSET 0.000000 0.000000 0.000000
					CHANNELS 3 Zrotation Yrotation Xrotation
					JOINT Neck1
					{
						OFFSET -0.054170 1.746240 0.172020
						CHANNELS 3 Zrotation Yrotation Xrotation
						JOINT Head
						{
							OFFSET 0.104070 1.761360 -0.123970
							CHANNELS 3 Zrotation Yrotation Xrotation
							End Site
							{
								OFFSET 0.000000 0.000000 0.000000
							}
						}
					}
				}
				JOINT LeftShoulder
				{
					OFFSET 0.000000 0.000000 0.000000
					CHANNELS 3 Zrotation Yrotation Xrotation
					JOINT LeftArm
					{
						OFFSET 3.362410 1.200890 -0.311210
						CHANNELS 3 Zrotation Yrotation Xrotation
						JOINT LeftForeArm
						{
							OFFSET 4.983000 -0.000000 -0.000000
							CHANNELS 3 Zrotation Yrotation Xrotation
							JOINT LeftHand
							{
								OFFSET 3.483560 -0.000000 -0.000000
								CHANNELS 3 Zrotation Yrotation Xrotation
								JOINT LeftFingerBase
								{
									OFFSET 0.000000 0.000000 0.000000
									CHANNELS 3 Zrotation Yrotation Xrotation
									JOINT LeftHandIndex1
									{
										OFFSET 0.715260 -0.000000 -0.000000
										CHANNELS 3 Zrotation Yrotation Xrotation
										End Site
										{
											OFFSET 0.000000 0.000000 0.000000
										}
									}
								}
								JOINT LThumb
								{
									OFFSET 0.000000 0.000000 0.000000
									CHANNELS 3 Zrotation Yrotation Xrotation
									End Site
									{
										OFFSET 0.000000 0.000000 0.000000
									}
								}
							}
						}
					}
				}
				JOINT RightShoulder
				{
					OFFSET 0.000000 0.000000 0.000000
					CHANNELS 3 Zrotation Yrotation Xrotation
					JOINT RightArm
					{
						OFFSET -3.136600 1.374050 -0.404650
						CHANNELS 3 Zrotation Yrotation Xrotation
						JOINT RightForeArm
						{
							OFFSET -5.241900 -0.000000 -0.000000
							CHANNELS 3 Zrotation Yrotation Xrotation
							JOINT RightHand
							{
								OFFSET -3.444170 -0.000000 -0.000000
								CHANNELS 3 Zrotation Yrotation Xrotation
								JOINT RightFingerBase
								{
									OFFSET 0.000000 0.000000 0.000000
									CHANNELS 3 Zrotation Yrotation Xrotation
									JOINT RightHandIndex1
									{
										OFFSET -0.622530 -0.000000 -0.000000
										CHANNELS 3 Zrotation Yrotation Xrotation
										End Site
										{
											OFFSET 0.000000 0.000000 0.000000
										}
									}
								}
								JOINT RThumb
								{
									OFFSET 0.000000 0.000000 0.000000
									CHANNELS 3 Zrotation Yrotation Xrotation
									End Site
									{
										OFFSET 0.000000 0.000000 0.000000
									}
								}
							}
						}
					}
				}
			}
		}
	}
}
MOTION
Frames: 12
Frame Time: 0.008333
-30.193076 17.478807 1.740459 -179.411624 59.330608 179.630818 1.390536 -3.451258 -1.890552 -17.000544 -1.900983 -1.881464 0.924535 10.433700 26.465090 -2.347897 14.940186 -19.297017 0.426300 4.190600 11.613400 -6.385331 2.709685 -5.659981 24.248410 -3.383617 5.777540 -1.106995 -9.213157 22.475562 -0.445768 -14.922720 -30.018335 -0.483200 -4.457700 12.367900 -0.382166 0.962589 -2.478373 0.156377 0.640097 -0.751875 2.544081 0.108261 9.562307 -6.269071 -5.025666 -16.356127 5.505734 -4.019094 18.718931 1.420800 -1.080100 17.292000 -8.269342 -1.570425 -1.155356 -81.239432 -4.856348 35.240468 5.167922 -17.946019 -1.276382 -0.566659 0.216503 -0.906415 23.092546 -11.105397 -4.906500 -7.125000 0.000000 0.000000 -2.432700 17.678900 1.580500 10.467483 3.500717 -0.902632 70.371150 0.966478 25.373988 -10.769595 23.459433 -3.467103 1.361400 0.556511 -7.274104 -9.358265 -30.270282 5.517300 7.125000 0.000000 0.000000 23.499200 -59.375900 -8.541000 
-30.196455 17.487887 1.736447 -179.125763 59.409171 179.877625 1.384643 -3.451467 -1.881128 -16.871962 -2.045944 -1.861243 0.941749 10.455302 26.569325 -2.329717 14.937307 -19.526553 0.239500 3.149400 8.694900 -6.398631 2.698991 -5.642597 24.474741 -3.200305 5.939181 -1.070082 -9.135323 22.227547 -0.423068 -15.107617 -30.075928 -0.501700 -4.540900 12.603500 -0.201721 0.907267 -2.502759 0.204956 0.523490 -0.819793 2.604235 0.065127 9.301163 -6.434339 -5.028614 -15.780919 5.526330 -3.981799 18.783202 1.483800 -1.079000 17.174400 -8.254739 -1.576921 -1.169804 -81.366082 -4.335504 35.099634 5.232619 -18.067622 -1.293555 -0.568557 0.198474 -0.909000 23.007314 -10.695860 -4.705600 -7.125000 0.000000 0.000000 -2.471700 18.149000 1.580300 10.469580 3.499569 -0.923647 70.280428 0.545049 25.390140 -10.710286 23.387963 -3.406707 1.340773 0.542849 -7.174956 -9.122236 -29.319952 5.231800 7.125000 0.000000 0.000000 23.025500 -58.454200 -7.842800 
-30.200995 17.492849 1.731907 -179.303055 59.527396 179.769310 1.378304 -3.455677 -1.869197 -16.999744 -2.063617 -1.899912 0.934588 10.456606 26.551415 -2.344811 15.027342 -19.620337 0.090800 1.943800 5.350300 -6.394454 2.695228 -5.623656 24.333011 -3.163079 5.807840 -1.079916 -9.144789 22.269346 -0.399778 -15.179983 -29.961642 -0.454900 -4.326900 11.998300 -0.243136 0.857435 -2.557508 0.221892 0.445105 -0.890289 2.687676 0.036988 9.047604 -6.654767 -5.053161 -15.259659 5.595768 -3.960311 18.817914 1.587200 -1.089300 17.058400 -8.250216 -1.576036 -1.181294 -81.517701 -3.956514 34.657298 5.187944 -18.027472 -1.286416 -0.560270 0.192961 -0.693191 22.680075 -10.695581 -4.627800 -7.125000 0.000000 0.000000 -2.707100 18.187800 1.728800 10.459290 3.509739 -0.941880 70.199475 0.082191 25.463570 -10.698645 23.391217 -3.395376 1.333444 0.544491 -7.070029 -9.072676 -29.155506 5.177800 7.125000 0.000000 0.000000 22.965700 -58.298100 -7.733700 
-30.205746 17.490315 1.731484 -179.293636 59.618286 179.833070 1.374241 -3.458928 -1.859455 -16.983870 -1.869287 -2.078334 0.939774 10.461425 26.559980 -2.408233 15.210282 -19.441851 0.004300 0.421500 1.158200 -6.401950 2.686024 -5.602445 24.316245 -3.172018 5.629361 -1.076441 -9.141525 22.244127 -0.320607 -15.444085 -29.640052 -0.383900 -3.979200 11.018200 -0.239574 0.800717 -2.606252 0.257904 0.347185 -0.959871 2.805139 -0.002206 8.799830 -6.845649 -5.062658 -14.758492 5.640171 -3.931789 18.835366 1.663700 -1.096500 16.929600 -8.237892 -1.579758 -1.187524 -81.677219 -3.702923 34.067234 5.084076 -17.901295 -1.266338 -0.547071 0.192959 -0.482153 22.199351 -10.895285 -4.599800 -7.125000 0.000000 0.000000 -3.062100 18.018700 1.967500 10.455133 3.516004 -0.960296 70.121786 -0.380664 25.555776 -10.717800 23.445967 -3.429150 1.338609 0.567621 -6.955254 -9.068424 -29.853896 5.293300 7.125000 0.000000 0.000000 23.514500 -58.954300 -8.307000 
-30.207540 17.488415 1.732012 -179.314815 59.673611 179.811987 1.366982 -3.458945 -1.835960 -16.982391 -1.801277 -2.115853 0.939553 10.453318 26.548472 -2.395290 15.161899 -19.449965 0.001400 -0.245600 -0.674900 -6.399242 2.672781 -5.571844 24.257286 -3.271349 5.505197 -1.080981 -9.147733 22.261924 -0.292570 -15.436330 -29.391013 -0.357700 -3.842400 10.633700 -0.356267 0.647427 -2.679522 0.333886 0.111920 -1.092627 3.092230 -0.099162 8.290652 -7.174673 -4.919797 -13.603701 5.680054 -3.681004 18.829590 1.783300 -1.033100 16.561100 -8.204415 -1.597876 -1.201737 -81.973891 -2.910503 33.351888 5.008954 -17.860893 -1.258143 -0.553217 0.193140 -0.208738 22.493472 -11.025580 -4.719800 -7.125000 0.000000 0.000000 -2.855500 17.855500 1.844700 10.463161 3.505698 -0.999626 69.941576 -1.324575 25.926746 -10.768166 23.544611 -3.454686 1.333669 0.591427 -6.806229 -9.060079 -30.262543 5.355800 7.125000 0.000000 0.000000 23.872500 -59.346200 -8.669300 
-30.207435 17.490104 1.732223 -179.281159 59.689502 179.836076 1.367518 -3.456350 -1.835670 -16.946982 -1.847200 -2.073881 0.937582 10.447626 26.544780 -2.321939 14.920204 -19.574763 0.069800 1.704200 4.688700 -6.400992 2.673502 -5.572926 24.284373 -3.241288 5.516838 -1.079894 -9.146860 22.256900 -0.293572 -15.434064 -29.398108 -0.360100 -3.854900 10.668700 -0.315237 0.653881 -2.648873 0.324591 0.122868 -1.084359 3.043514 -0.092848 8.294864 -7.167543 -5.048091 -13.603532 5.735295 -3.874835 18.822060 1.802400 -1.102300 16.575500 -8.221577 -1.588523 -1.200206 -81.854653 -2.929658 33.477175 4.989070 -17.829204 -1.252764 -0.572522 0.199597 -0.009841 23.205976 -10.920755 -4.843800 -7.125000 0.000000 0.000000 -2.336700 17.897300 1.506800 10.443870 3.518398 -1.001098 70.091851 -1.424094 25.651552 -10.735153 23.512093 -3.447177 1.336657 0.573526 -6.518240 -9.188229 -30.205489 5.411000 7.125000 0.000000 0.000000 23.686000 -59.312000 -8.577200 
-30.207752 17.493271 1.730851 -179.273124 59.659664 179.865729 1.371244 -3.455774 -1.841711 -16.935665 -1.889867 -2.077794 0.937230 10.448248 26.544813 -2.313881 14.880860 -19.548508 0.066600 1.664700 4.579900 -6.397806 2.678422 -5.580095 24.285707 -3.223871 5.555037 -1.076716 -9.135426 22.226937 -0.319303 -15.353281 -29.510228 -0.392700 -4.023700 11.143300 -0.200038 0.708568 -2.631888 0.277755 0.206061 -1.049071 2.833526 -0.048861 8.411972 -7.044187 -5.241681 -13.837374 5.792988 -4.187069 18.830327 1.793100 -1.200400 16.680300 -8.257314 -1.573889 -1.197280 -81.586869 -3.138033 33.733665 5.036772 -17.870306 -1.261291 -0.577545 0.200604 -0.073592 23.268975 -10.860860 -4.834200 -7.125000 0.000000 0.000000 -2.286400 17.954200 1.471400 10.410947 3.534661 -0.992314 70.345052 -1.281781 25.235495 -10.639106 23.410304 -3.430003 1.345702 0.551306 -6.295561 -9.427397 -30.303989 5.550600 7.125000 0.000000 0.000000 23.496100 -59.436900 -8.574500 
-30.208913 17.495805 1.729584 -179.284878 59.694225 179.888322 1.367039 -3.458201 -1.838422 -16.972408 -2.015000 -2.064101 0.935060 10.451514 26.548038 -2.345293 15.026652 -19.627136 0.060400 1.585800 4.362300 -6.396092 2.676611 -5.571453 24.269959 -3.176445 5.567279 -1.075393 -9.121619 22.194726 -0.355051 -15.196666 -29.605451 -0.439800 -4.255100 11.795600 -0.201004 0.648609 -2.699049 0.302929 0.114134 -1.076947 2.913125 -0.093282 8.343146 -7.184608 -5.249835 -13.632509 5.789085 -4.149163 18.902909 1.830900 -1.201200 16.675400 -8.250279 -1.571473 -1.205697 -81.671558 -3.012593 33.437378 5.089643 -17.958025 -1.279508 -0.568673 0.197208 -0.249458 22.963063 -10.949307 -4.799800 -7.125000 0.000000 0.000000 -2.511900 17.889000 1.620400 10.416232 3.533567 -0.998779 70.244996 -1.450438 25.419922 -10.554877 23.332971 -3.415631 1.348922 0.566060 -6.273731 -9.506418 -30.687720 5.658900 7.125000 0.000000 0.000000 23.731500 -59.814300 -8.882600 
-30.211869 17.494961 1.728000 -179.313103 59.687646 179.881089 1.365549 -3.460259 -1.837185 -17.009864 -2.090747 -2.065988 0.933323 10.455962 26.556221 -2.330967 15.005718 -19.730783 0.072400 1.736100 4.776900 -6.394130 2.676215 -5.569056 24.234125 -3.205917 5.544889 -1.075054 -9.115857 22.181430 -0.355183 -15.172703 -29.572338 -0.446700 -4.287900 11.888200 -0.193434 0.611559 -2.717840 0.312422 0.060678 -1.085903 2.929680 -0.119314 8.330350 -7.205281 -5.306167 -13.601823 5.730931 -4.209418 18.990833 1.797300 -1.226700 16.738500 -8.248131 -1.572213 -1.208465 -81.680385 -3.062290 33.415809 5.107527 -17.983240 -1.285237 -0.574502 0.195508 -0.358998 23.141008 -10.818147 -4.785200 -7.125000 0.000000 0.000000 -2.377000 18.014600 1.526700 10.418077 3.534945 -1.005351 70.226825 -1.540977 25.471513 -10.485414 23.265228 -3.401244 1.348573 0.576399 -6.156157 -9.345675 -30.939850 5.616600 7.125000 0.000000 0.000000 24.119900 -60.017600 -9.156400 
-30.215670 17.492849 1.727684 -179.315258 59.635340 179.912461 1.366497 -3.463063 -1.838779 -16.998859 -2.008366 -2.164643 0.936125 10.460191 26.564523 -2.337254 14.995351 -19.627010 0.059900 1.578700 4.342600 -6.390666 2.676956 -5.567037 24.219386 -3.225327 5.528518 -1.077597 -9.117192 22.188271 -0.389866 -15.006481 -29.650010 -0.474800 -4.419000 12.258600 -0.161635 0.562524 -2.726623 0.320328 -0.007884 -1.084665 2.923977 -0.153709 8.352107 -7.223515 -5.355591 -13.628519 5.704052 -4.275256 19.000058 1.778400 -1.258200 16.757300 -8.250500 -1.571578 -1.205105 -81.674984 -3.205804 33.465075 5.094227 -17.958604 -1.282204 -0.592334 0.193555 -0.346613 23.713420 -10.445304 -4.753800 -7.125000 0.000000 0.000000 -1.943900 18.367800 1.233000 10.418900 3.535814 -1.006756 70.212562 -1.556771 25.475044 -10.413923 23.184699 -3.372595 1.344112 0.577763 -5.952272 -9.079372 -30.850567 5.459700 7.125000 0.000000 0.000000 24.335900 -59.884300 -9.166200 
-30.212925 17.489999 1.729584 -179.188006 59.618202 179.988708 1.368870 -3.462122 -1.840107 -16.871472 -1.652054 -2.289034 0.949345 10.459499 26.577818 -2.390725 15.071900 -19.232255 0.026300 1.046900 2.877900 -6.395839 2.676642 -5.566037 24.364288 -3.033303 5.654506 -1.076357 -9.123372 22.201427 -0.429086 -14.946826 -29.907939 -0.506500 -4.562300 12.664200 -0.118054 0.515397 -2.699068 0.347254 -0.079617 -1.075094 2.986486 -0.193917 8.375620 -7.303989 -5.378831 -13.622894 5.693301 -4.290382 18.974194 1.784000 -1.281300 16.735200 -8.248113 -1.570253 -1.200627 -81.696883 -3.299127 33.392704 5.087617 -17.948594 -1.282186 -0.591346 0.196008 -0.354803 23.722245 -10.491793 -4.777200 -7.125000 0.000000 0.000000 -1.940700 18.313500 1.233300 10.429671 3.532932 -1.005344 70.141347 -1.593347 25.573403 -10.357581 23.123398 -3.353097 1.341000 0.586283 -5.923052 -8.938214 -30.890240 5.391500 7.125000 0.000000 0.000000 24.527100 -59.897200 -9.251200 
-30.207012 17.487570 1.730851 -179.078308 59.599325 179.997273 1.371829 -3.457270 -1.841982 -16.778490 -1.502584 -2.240857 0.957783 10.456827 26.591660 -2.374511 14.963485 -19.085205 0.029800 1.114100 3.062700 -6.401620 2.678612 -5.575442 24.505938 -2.888873 5.829888 -1.069804 -9.121624 22.191152 -0.426800 -15.086649 -30.072677 -0.504100 -4.551300 12.633200 -0.076971 0.521538 -2.630908 0.354980 -0.071570 -1.045699 3.000303 -0.196814 8.442906 -7.314388 -5.471354 -13.713542 5.683531 -4.415005 18.989901 1.768100 -1.332000 16.782800 -8.255112 -1.564577 -1.196055 -81.622984 -3.454040 33.474040 5.115765 -17.979229 -1.288453 -0.580311 0.198627 -0.420057 23.367924 -10.683803 -4.781300 -7.125000 0.000000 0.000000 -2.207500 18.134600 1.411800 10.430917 3.535960 -1.000892 70.179957 -1.541059 25.440192 -10.264491 23.010884 -3.317605 1.338530 0.579227 -5.876432 -8.927466 -30.706846 5.355000 7.125000 0.000000 0.000000 24.384600 -59.724900 -9.092300 
